# xmcd
#
# Track frame offsets: 
#        150
#        7237
#        25312
#        41999
#        57149
#        75299
#        90186
#        103198
#        116473
#        117073
#        132185
#        149585
#        165935
#        187347
#        202759
#        219784
#        235946
#        253196
#
# Disc length: 3416 seconds
#
# Revision: 0
# Processed by: cddbd v1.5.2PL0 Copyright (c) Steve Scherf et al.
# Submitted via: ExactAudioCopy v1.5
#
DISCID=ee0d5612
DTITLE=Terence Chill - Privatsphäre
DYEAR=2011
DGENRE=Rap
TTITLE0=Intro
TTITLE1=Chefin
TTITLE2=Wortfetzen feat. Paul
TTITLE3=Goldig
TTITLE4=Undankbarer Job
TTITLE5=Nur ein Reim feat. Lakman
TTITLE6=Es ist an der Zeit feat. Flipstar
TTITLE7=Scheiß-Drauf-Mentalität
TTITLE8=Skit
TTITLE9=Es könnt schlimmer kommen
TTITLE10=Verrückte Welt feat. Tom and Neno
TTITLE11=Mit oder ohne
TTITLE12=Tag Team feat. Pahel
TTITLE13=Tschuldigung
TTITLE14=Du bist du
TTITLE15=Nach vorn feat. Rahim and Dike
TTITLE16=Wir sehen uns
TTITLE17=Outro
EXTD=
EXTT0=
EXTT1=
EXTT2=
EXTT3=
EXTT4=
EXTT5=
EXTT6=
EXTT7=
EXTT8=
EXTT9=
EXTT10=
EXTT11=
EXTT12=
EXTT13=
EXTT14=
EXTT15=
EXTT16=
EXTT17=
PLAYORDER=
